<?xml version="1.0" standalone="no"?>
<!DOCTYPE svg PUBLIC "-//W3C//DTD SVG 1.1//EN" "http://www.w3.org/Graphics/SVG/1.1/DTD/svg11.dtd" >
<svg xmlns="http://www.w3.org/2000/svg">
<metadata>Generated by IcoMoon</metadata>
<defs>
<font id="icomoon" horiz-adv-x="1024">
<font-face units-per-em="1024" ascent="960" descent="-64" />
<missing-glyph horiz-adv-x="1024" />
<glyph unicode="&#x20;" horiz-adv-x="512" d="" />
<glyph unicode="&#xe901;" glyph-name="loupe" d="M379.728 200.843c101.325 0 196.915 39.201 268.606 110.91s110.885 167.322 110.885 268.668c0 101.349-39.194 196.961-110.885 268.669s-167.281 110.909-268.606 110.909c-101.325 0-196.914-39.201-268.606-110.909-148.163-148.198-148.163-389.139 0-537.337 71.692-71.709 167.281-110.91 268.606-110.91zM379.728 849.091c71.691 0 139.56-27.727 190.223-78.401 105.147-105.173 105.147-275.362 0-380.534-50.662-50.673-118.532-78.402-190.223-78.402s-139.561 27.728-190.223 78.402-78.383 118.557-78.383 190.267c0 71.709 27.721 139.594 78.383 190.268s118.531 78.401 190.223 78.401zM1024 40.218l-284.855 284.921c-14.34-20.078-30.588-39.201-47.795-56.411-17.207-17.207-36.323-33.463-56.397-47.806l284.855-284.921 104.192 104.218z" />
<glyph unicode="&#xe902;" glyph-name="loading" horiz-adv-x="916" d="M851.434 376.304c0-206.702-164.163-374.299-366.381-374.299-202.219 0-366.383 167.807-366.383 374.509s164.164 374.299 366.383 374.299c28.744 0 57.489-3.518 85.423-10.346l-117.81-120.422 45.747-46.762 189.063 193.462-188.86 193.254-45.95-46.762 99.793-101.386c-235.213 38.279-456.055-125.802-493.301-366.231-37.246-240.433 123.275-465.96 358.489-504.032 235.212-38.071 455.852 126.006 493.099 366.436 3.444 22.555 5.266 45.519 5.266 68.489h-64.577v-0.21z" />
<glyph unicode="&#xe903;" glyph-name="arrow_right" horiz-adv-x="2194" d="M2009.659 563.746h-2009.659v-203.674h2009.659v203.674zM1626.434-42.379l-154.463 144.020 383.064 357.17-383.064 357.169 154.463 144.020 537.527-501.189-537.527-501.189z" />
<glyph unicode="&#xe904;" glyph-name="drop" horiz-adv-x="569" d="M282.491 293.54l-279.591 267.911 42.24 41.067 239.36-228.8 239.36 230.756 42.24-41.067-281.6-271.822-2.009 1.956z" />
<glyph unicode="&#xe905;" glyph-name="arrow_long_left" horiz-adv-x="3218" d="M501.746-64l-501.746 511.799 501.746 512.201 69.928-71.329-382.828-390.498h3029.44v-100.748h-3029.44l382.828-390.498-69.928-70.927z" />
<glyph unicode="&#xe906;" glyph-name="arrow_left" horiz-adv-x="2194" d="M184.341 332.254h2009.659v203.674h-2009.659v-203.674zM567.566 938.379l154.463-144.020-383.064-357.17 383.064-357.169-154.463-144.020-537.527 501.189 537.527 501.189z" />
<glyph unicode="&#xe907;" glyph-name="it" horiz-adv-x="1123" d="M1045.167 959.96h-962.654c-45.841 0-82.513-36.873-82.513-82.965v-691.373c0-46.090 36.672-82.964 82.513-82.964h375.895v-64.529h-128.355c-18.337 0-36.673-13.827-36.673-36.874s13.752-36.874 36.673-36.874h458.407c18.336 0 36.672 13.827 36.672 36.874s-13.751 36.874-36.672 36.874h-128.353v69.137h375.894c45.839 0 82.511 36.874 82.511 82.967v691.371c4.585 41.482-32.088 78.355-73.345 78.355zM595.928 38.129h-68.76v69.137h68.76v-69.137zM1054.337 185.621c0-4.608-4.585-9.219-9.17-9.219h-962.654c-4.584 0-9.168 4.611-9.168 9.219v691.373c0 4.609 4.584 9.218 9.168 9.218h962.654c4.585 0 9.17-4.609 9.17-9.218v-691.373z" />
<glyph unicode="&#xe908;" glyph-name="by_time" horiz-adv-x="870" d="M435.18 826.849l-133.12 133.12-40.96-35.84 153.6-153.6c10.24-10.24 25.6-10.24 35.84 0l153.6 153.6-35.84 35.84-133.12-133.12zM450.55 499.169c5.12 0 10.24-10.24 10.24-20.48v-117.76l225.28 66.56 15.36-51.2-256-76.8c-10.24 0-15.36 0-20.48 5.12-10.24 5.12-15.36 15.36-15.36 20.48v122.88l-225.28-66.56-15.36 51.2 256 76.8c10.24 0 20.48-5.12 25.6-10.24zM0 555.487c0 143.36 112.64 256.001 256 256.001h358.4c143.36 0 256-112.641 256-256.001v-358.4c0-143.36-112.64-256-256-256h-358.4c-143.36 0-256 112.64-256 256v358.4zM256 760.287c-112.64 0-204.8-92.161-204.8-204.801v-358.4c0-112.64 92.16-204.8 204.8-204.8h358.4c112.64 0 204.8 92.16 204.8 204.8v358.4c0 112.64-92.16 204.801-204.8 204.801h-358.4z" />
<glyph unicode="&#xe909;" glyph-name="whatsapp" d="M512 960c-282.657 0-512-229.343-512-512 0-113.181 36.635-217.428 98.587-302.314l-65.229-193.006 203.43 63.44c79.525-50.633 173.941-80.121 275.211-80.121 282.657 0 512 229.343 512 512s-229.343 512-512 512zM746.405 173.385c-92.928-37.233-203.725-1.192-324.952 90.843-121.223 92.036-201.046 221.597-206.407 317.802s72.973 144.755 115.565 144.457c42.593-0.298 89.354-136.415 89.95-157.264 0.596-21.146-52.122-58.675-54.206-76.548-2.087-17.869 71.779-106.032 103.055-129.861 30.976-23.53 95.013-68.802 128.073-64.633 32.764 4.469 54.506 70.294 75.355 74.463s134.627-52.421 145.946-67.017c11.319-14.892 10.127-99.478-72.379-132.242z" />
<glyph unicode="&#xe90a;" glyph-name="map" horiz-adv-x="860" d="M858.35 480.481c-14.479-96.719-57.926-179.106-126.71-247.165-39.825-35.824-76.026-75.227-115.851-111.047-57.926-60.895-115.851-125.374-173.773-186.27-123.092 125.374-242.562 232.837-354.791 351.048-65.166 71.639-90.508 164.774-86.888 261.493 3.62 207.761 166.534 386.866 369.271 408.358 228.080 25.075 423.574-103.881 481.5-315.225 14.483-42.985 7.242-154.029 7.242-161.193zM431.153 394.51c76.026 0 141.193 60.895 141.193 136.118 0 75.224-65.167 139.702-137.572 139.702-72.406 0-141.192-64.478-141.192-136.118 0-75.227 61.545-139.702 137.572-139.702z" />
<glyph unicode="&#xe90b;" glyph-name="plus" d="M601.53-33.057h-184.236v390.704h-390.706v194.824h390.706v390.706h184.236v-390.706h389.648v-194.824h-389.648v-390.704z" />
<glyph unicode="&#xe90c;" glyph-name="download" horiz-adv-x="1248" d="M963.008-33.885h-637.037c-3.728 0-5.59 1.885-9.315 1.885-70.782 7.542-137.839 37.718-191.857 84.867s-93.134 109.382-111.761 177.277c-5.588 20.746-9.313 43.376-13.039 66.010v62.234c1.863 3.773 1.863 7.546 1.863 11.315 7.451 66.010 31.666 126.358 70.782 179.165s93.134 92.41 152.74 115.042c3.725 1.886 7.451 3.772 11.176 7.544s5.588 7.544 5.588 11.316c18.627 62.236 54.018 116.928 98.721 162.19 44.707 45.262 100.586 79.209 162.054 96.183 27.942 7.544 55.882 13.202 85.683 18.859h67.059c24.214-3.772 46.566-7.544 70.781-13.202 78.234-20.745 149.014-66.008 201.171-128.243 52.154-62.236 85.683-139.559 93.133-220.654 0-3.773 1.862-7.542 3.725-9.43 1.862-1.885 5.59-3.77 9.315-5.658 48.429-16.973 93.133-45.261 128.525-82.979s59.606-84.867 72.643-135.789c3.728-16.973 7.453-33.946 11.178-50.918v-56.579c-1.862-3.773-1.862-7.542-1.862-11.315-7.453-56.579-27.942-109.386-61.469-152.762-33.53-45.261-80.096-79.21-130.387-98.067-29.805-15.088-59.606-22.63-89.411-28.288zM644.49 56.64h283.13c13.037 0 24.214 0 37.251 1.885 39.117 5.658 76.371 22.63 108.038 47.149 31.664 24.515 55.878 58.464 68.918 96.182 14.902 37.718 16.765 79.21 11.174 118.813-7.45 39.606-24.214 77.325-50.291 107.498-33.53 39.606-80.096 64.122-130.387 73.552-11.178 1.885-20.49 7.542-27.942 15.088-7.45 7.542-11.174 18.858-9.312 30.176 0 11.315-1.862 24.515-1.862 35.83-7.453 73.552-40.979 141.446-93.136 194.252-52.154 50.92-121.072 82.981-193.718 86.753-72.643 5.658-145.29-15.088-204.896-60.35-59.606-43.376-100.586-107.498-119.213-179.164-1.862-11.315-7.449-20.746-14.9-28.288-7.451-7.546-16.764-13.203-27.94-15.088-61.468-18.861-113.624-58.464-149.015-113.155-35.391-54.694-46.567-115.043-37.254-179.165s40.979-122.586 89.409-165.962c48.43-43.376 109.899-66.006 173.229-66.006 96.861 0 191.856 0 288.717 0zM579.296 299.923v111.27c0 77.325 0 152.762 0 230.084 0 11.316 3.725 22.631 11.174 30.175 7.453 9.43 16.765 15.087 27.942 15.087 11.174 1.886 22.352-1.886 31.664-7.544 9.315-5.658 14.902-15.087 18.627-26.403 1.862-5.658 1.862-13.201 1.862-18.859v-331.923c3.725 3.77 7.453 5.658 11.178 9.427 29.802 30.176 59.606 60.352 89.408 90.525 3.725 5.658 9.315 9.43 14.902 11.315 5.587 3.773 11.174 3.773 18.627 5.661 5.587 0 13.037 0 18.627-3.773 5.587-1.888 11.174-5.658 14.899-9.43s7.453-9.43 9.315-15.088c1.862-5.658 3.725-13.2 1.862-18.858 0-5.658-1.862-13.203-5.587-18.861-3.728-5.658-7.453-11.315-11.178-15.088-57.744-58.464-113.622-115.040-171.366-173.504-3.725-5.658-9.315-9.43-14.902-13.203-9.312-3.77-16.765-3.77-22.352-3.77-7.45 0-13.040 1.885-20.49 3.77-5.587 3.773-11.178 7.546-14.902 13.203l-171.366 173.504c-5.587 3.773-9.312 9.43-11.174 15.088-1.866 5.658-3.728 11.315-3.728 18.861 0 5.658 0 13.2 3.728 18.858 1.862 5.658 5.587 11.315 9.312 15.088s9.312 7.542 14.902 9.43c5.587 1.885 11.174 3.773 18.627 3.773 5.587 0 13.037-1.888 18.624-5.661 5.59-3.77 11.178-7.542 14.902-11.315 3.725-3.77 7.453-9.427 13.040-13.2 24.214-28.288 52.154-56.579 83.821-88.64z" />
<glyph unicode="&#xe90d;" glyph-name="calendar" d="M963.998 375.501v492.499c0 16.57-13.428 30-29.999 30h-151.999v32c0 16.57-13.428 30-30.003 30-16.57 0-29.999-13.43-29.999-30v-32h-119.999v32c0 16.57-13.428 30-29.999 30s-30.003-13.43-30.003-30v-32h-119.998v32c0 16.57-13.43 30-30 30s-30-13.43-30-30v-32h-120v32c0 16.57-13.43 30-30 30s-30-13.43-30-30v-32h-152c-16.57 0-30-13.43-30-30v-781.998c0-16.57 13.43-30.003 30-30.003h499.608c48.5-72.304 130.979-119.999 224.391-119.999 148.876 0 270.001 121.125 270.001 270.001 0 64.14-22.5 123.122-60.002 169.5zM182 838v-30c0-16.571 13.429-30 30-30s30 13.43 30 30v30h120v-30c0-16.571 13.43-30 30-30s30 13.43 30 30v30h119.998v-30c0-16.571 13.433-30 30.003-30s29.999 13.43 29.999 30v30h119.999v-30c0-16.571 13.428-30 29.999-30 16.575 0 30.003 13.43 30.003 30v30h122v-120h-844.001v120h122zM60 116.001v541.999h844.001v-227.608c-42.929 28.788-94.538 45.61-150.002 45.61-94.794 0-178.325-49.119-226.513-123.229-4.054 2.048-8.625 3.226-13.484 3.226h-60.001c-16.571 0-30-13.428-30-29.999s13.429-29.999 30-29.999h45.447c-6.777-19.112-11.464-39.205-13.768-60.002h-31.678c-16.571 0-30-13.428-30-29.999s13.429-30.003 30-30.003h31.678c2.304-20.797 6.986-40.89 13.768-59.997h-439.447zM753.999-3.998c-115.796 0-209.999 94.203-209.999 209.999s94.203 209.999 209.999 209.999c115.796 0 209.999-94.203 209.999-209.999s-94.203-209.999-209.999-209.999zM873.998 235.999h-89.996v90c0 16.57-13.433 29.999-30.003 29.999s-29.999-13.428-29.999-29.999v-119.999c0-16.57 13.428-30.003 29.999-30.003h119.999c16.57 0 30.003 13.433 30.003 30.003s-13.433 29.999-30.003 29.999zM272 596h-60c-16.571 0-30-13.43-30-30s13.429-30 30-30h60c16.57 0 30 13.43 30 30s-13.43 30-30 30zM272 476.002h-60c-16.571 0-30-13.433-30-30.003s13.429-29.999 30-29.999h60c16.57 0 30 13.428 30 29.999s-13.43 30.003-30 30.003zM272 355.998h-60c-16.571 0-30-13.428-30-29.999s13.429-29.999 30-29.999h60c16.57 0 30 13.428 30 29.999s-13.43 29.999-30 29.999zM454 536h60.001c16.57 0 29.999 13.43 29.999 30s-13.428 30-29.999 30h-60.001c-16.571 0-30-13.43-30-30s13.429-30 30-30zM454 416h60.001c16.57 0 29.999 13.428 29.999 29.999s-13.428 30.003-29.999 30.003h-60.001c-16.571 0-30-13.433-30-30.003s13.429-29.999 30-29.999zM272 235.999h-60c-16.571 0-30-13.428-30-29.999s13.429-30.003 30-30.003h60c16.57 0 30 13.433 30 30.003s-13.43 29.999-30 29.999zM694.002 536h59.997c16.57 0 30.003 13.43 30.003 30s-13.433 30-30.003 30h-59.997c-16.57 0-30.003-13.43-30.003-30s13.433-30 30.003-30z" />
<glyph unicode="&#xe90e;" glyph-name="time" d="M512 960c-282.77 0-512-229.23-512-512s229.23-512 512-512c282.769 0 512 229.231 512 512-0.303 282.644-229.355 511.698-512 512zM512 9.143c-242.375 0-438.858 196.484-438.858 438.857 0 242.375 196.483 438.858 438.858 438.858 242.372 0 438.857-196.483 438.857-438.858-0.26-242.266-196.591-438.596-438.857-438.857zM511.974 777.146c-20.198 0-36.57-16.374-36.57-36.572v-256h-255.999c-20.199 0-36.572-16.375-36.572-36.574s16.373-36.57 36.572-36.57h292.569c20.198 0 36.574 16.375 36.574 36.574v292.57c0 20.198-16.375 36.572-36.574 36.572z" />
<glyph unicode="&#xe90f;" glyph-name="instagram" d="M511.927 959.491c-209.821 0-408.811 18.671-484.888-176.43-31.405-80.638-26.803-185.359-26.803-334.999 0-131.511-4.332-255.173 26.803-334.998 75.806-195.101 276.691-176.432 484.888-176.432 200.883 0 407.995-20.835 484.886 176.432 31.404 81.448 26.803 184.547 26.803 334.998 0 199.971 11.099 328.776-85.826 425.65-98.275 98.227-231.205 85.779-425.863 85.779zM466.172 867.218c437.508 0.812 493.008 49.519 462.413-625.89-10.829-238.939-192.761-212.692-416.388-212.692-407.728 0-419.37 11.637-419.37 419.427-0.271 412.661 31.947 419.155 373.345 419.155zM785.097 782.521c-33.843 0-61.458-27.601-61.458-61.426s27.615-61.425 61.458-61.425c33.843 0 61.458 27.601 61.458 61.425s-27.615 61.426-61.458 61.426zM511.927 710.542c-145.115 0-262.885-117.711-262.885-262.75s117.77-262.751 262.885-262.751c145.112 0 262.612 117.712 262.612 262.751s-117.5 262.75-262.612 262.75zM511.927 618.539c225.521 0 225.792-340.951 0-340.951-225.524-0.274-225.794 340.951 0 340.951z" />
<glyph unicode="&#xe910;" glyph-name="youtube" horiz-adv-x="1434" d="M1403.566 799.893c-16.589 62.67-65.004 112.075-126.418 129-112.067 31.107-560.573 31.107-560.573 31.107s-448.503 0-560.798-30.192c-60.294-16.926-109.828-67.474-126.415-130.144-29.362-114.362-29.362-351.55-29.362-351.55s0-238.558 29.586-351.776c16.586-62.674 65-112.077 126.415-129.004 113.415-31.334 560.799-31.334 560.799-31.334s448.502 0 560.799 30.193c61.414 16.927 109.829 66.33 126.413 128.998 29.588 114.365 29.588 351.78 29.588 351.78s0.671 238.331-30.034 352.922zM573.798 228.767v438.466l372.966-219.345-372.966-219.121z" />
<glyph unicode="&#xe911;" glyph-name="arrow_light_left" horiz-adv-x="2253" d="M691.906 960l-491.944-512 491.944-512 68.362 70.997-375.319 390.485h1812.25v101.036h-1812.25l375.319 390.484-68.362 70.998z" />
<glyph unicode="&#xe912;" glyph-name="phone" horiz-adv-x="964" d="M810.086 320.319c-33.726 37.171-77.571 37.171-112.706 0-26.419-27.955-52.561-55.609-78.981-83.564-7.313-7.734-13.21-9.222-21.926-4.759-16.021 10.704-35.134 18.438-51.155 29.443-76.171 51.146-140.536 116.276-197.594 190.325-27.826 37.174-52.56 75.834-70.268 120.739-2.811 9.219-2.811 13.978 4.497 21.709 27.826 26.467 52.561 54.124 78.982 82.079 36.539 38.66 36.539 83.566 0 122.226-21.924 23.196-42.442 44.905-62.96 66.615-21.924 23.196-42.442 46.392-64.366 68.101-33.729 35.687-77.576 35.687-112.71 0-26.42-27.954-52.56-55.612-78.981-83.566-25.015-26.467-37.945-57.396-41.036-92.785-4.497-57.396 8.713-113.007 27.826-167.132 39.631-113.007 99.499-210.55 171.173-301.846 98.094-124.012 215.020-221.557 351.34-291.147 61.552-30.925 124.516-55.609 191.69-60.368 48.345-2.976 89.383 10.704 122.832 49.664 21.92 27.955 48.339 51.152 71.668 77.324 35.135 38.659 35.135 85.052 0 122.223-42.442 44.905-84.884 89.811-127.325 134.716z" />
<glyph unicode="&#xe913;" glyph-name="defense" horiz-adv-x="841" d="M420.571 960l-420.571-188.632v-278.455c0-260.491 178.967-498.527 416.099-556.913h8.945c237.133 58.386 416.099 296.422 416.099 556.913v278.455l-420.571 188.632zM420.571 61.755c-161.070 44.913-295.295 238.036-295.295 422.177v206.595l295.295 134.737 295.296-134.737v-211.090c0-179.646-134.224-372.769-295.296-417.682z" />
<glyph unicode="&#xe914;" glyph-name="percent" horiz-adv-x="1061" d="M956.186 593.803v149.191l-149.193 74.596-149.189 142.411-142.413-33.907-149.193 33.907-142.409-142.411-149.192-74.596v-149.191l-74.596-149.193 74.596-142.413v-149.189l149.192-74.598 142.409-142.409 149.193 33.909 149.193-33.909 142.409 142.409 149.193 74.598v149.189l74.595 142.413-74.595 149.193zM888.371 322.542v-122.064l-115.284-61.034-135.629-128.848-122.068 33.909-128.848-33.909-122.065 122.068-128.848 67.814v122.064l-61.033 122.068 61.033 128.848v122.065l122.066 61.033 128.846 128.847 122.068-33.907 122.064 33.907 122.068-122.066 128.848-67.815v-122.065l67.814-128.848-61.034-122.068zM694.162 672.857l-407.591-407.59 47.952-47.952 407.588 407.591-47.949 47.952zM379.758 478.519c54.25 0 101.723 47.473 101.723 101.723 0 54.252-47.473 101.722-101.723 101.722-54.252 0-101.722-40.689-101.722-101.722s40.689-101.723 101.722-101.723zM379.758 614.15c20.345 0 33.905-13.563 33.905-33.908s-20.341-33.905-33.905-33.905c-13.564 0-33.908 20.341-33.908 33.905s13.563 33.908 33.908 33.908zM651.008 410.697c-54.254 0-101.723-47.47-101.723-101.723 0-54.25 47.47-101.72 101.723-101.72 54.25 0 101.72 47.47 101.72 101.72 0 54.254-47.47 101.723-101.72 101.723zM651.008 275.068c-20.345 0-33.909 13.561-33.909 33.905s13.564 33.909 33.909 33.909c20.345 0 33.905-13.564 33.905-33.909s-20.345-33.905-33.905-33.905z" />
<glyph unicode="&#xe915;" glyph-name="timer" horiz-adv-x="878" d="M61.25 345.596c0-225.28 183.708-409.6 408.24-409.6 224.53 0 408.24 184.32 408.24 409.6s-183.709 409.6-408.24 409.6c-224.532 0-408.24-184.32-408.24-409.6zM469.489 652.796c168.397 0 306.18-138.24 306.18-307.2s-137.783-307.2-306.18-307.2c-168.399 0-306.18 138.24-306.18 307.2s137.781 307.2 306.18 307.2zM571.549 960h-204.12v-102.4h204.12v102.4zM152.157 867.251l-151.55-152.055 72.166-72.407 151.55 152.055-72.166 72.407zM520.525 550.393h-102.060v-256h102.060v256z" />
<glyph unicode="&#xe916;" glyph-name="arrow_long_right" horiz-adv-x="3218" d="M2716.254 960l501.746-511.799-501.746-512.201-69.928 71.329 382.828 390.498h-3029.44v100.748h3029.44l-382.828 390.498 69.928 70.927z" />
<glyph unicode="&#xe917;" glyph-name="production" horiz-adv-x="1297" d="M648.533-29.908c208.971 0 417.942 35.185 617.308 103.209l31.225 11.728v171.233l-74.462 21.111v68.021c0 211.111-120.098 403.454-309.856 497.28v4.691c0 53.95-45.636 98.518-100.881 98.518h-115.296v14.074h-96.079v-14.074h-115.296c-55.245 0-100.881-44.567-100.881-98.518v-4.691c-189.757-96.172-309.856-288.514-309.856-497.28v-68.021l-74.461-23.46v-171.23l31.226-11.728c199.364-65.679 408.337-100.864 617.308-100.864zM96.079 183.545l74.462 21.111v138.394c0 157.16 81.667 304.936 213.777 389.379v-143.084h96.079v258.021c0 2.346 2.4 4.691 4.803 4.691h115.296v-405.799h96.079v405.799h115.296c2.403 0 4.803-2.346 4.803-4.691v-258.021h96.079v143.084c132.11-86.789 213.777-232.219 213.777-389.379v-138.394l74.462-21.111v-32.84c-357.895-114.934-747.015-114.934-1104.909 0v32.84z" />
<glyph unicode="&#xe918;" glyph-name="sector" horiz-adv-x="1229" d="M1190.451 46.145h-1152.101c-21.082 0-38.35-17.125-38.35-38.028s17.267-38.025 38.35-38.025h1152.101c21.282 0 38.349 17.121 38.349 38.025s-17.268 38.028-38.349 38.028zM652.749 807.656v76.251h76.701c21.282 0 38.349 17.122 38.349 38.026s-17.067 38.026-38.147 38.026h-230.502c-21.282 0-38.349-17.122-38.349-38.026s17.268-38.026 38.349-38.026h76.701c0 0-0.201-79.237 0-76.052-321.255-19.909-575.85-285.891-575.85-609.41 0-30.857 0-17.121 0-38.025s17.267-38.025 38.35-38.025h1152.101c21.282 0 38.349 17.121 38.349 38.025s0 4.779 0 38.025c0 323.519-254.594 589.502-576.051 609.211zM76.7 198.444c0 294.455 240.74 533.16 537.7 533.16s537.699-238.705 537.699-533.16h-1075.399z" />
<glyph unicode="&#xe919;" glyph-name="arrow_light_right" horiz-adv-x="2253" d="M1561.094-64l491.944 512-491.944 512-68.362-70.997 375.319-390.485h-1812.25v-101.036h1812.25l-375.319-390.484 68.362-70.998z" />
<glyph unicode="&#xe91a;" glyph-name="list" horiz-adv-x="1629" d="M0 960h1091.658v-165.161h-1091.658v165.161zM0 629.678h1091.658v-165.163h-1091.658v165.163zM0 299.357h755.763v-165.162h-755.763v165.162zM1511.526 580.129l-419.868-412.905-109.168 107.357-117.56-115.614 226.728-222.967 537.432 528.514-117.565 115.615z" />
<glyph unicode="&#xe91b;" glyph-name="pdf" horiz-adv-x="2844" d="M65.333 892h402.666c98.222 0 179.556-30.889 244-92.667 64.889-61.333 97.333-137.555 97.333-228.667 0-90.666-32.222-166.888-96.667-228.666-64.444-61.333-146-92-244.667-92h-197.333v-314h-205.334v956zM461.334 707.334h-190.667v-272.667h190.667c40.888 0 74.889 13.112 102 39.334 27.556 26.221 41.333 58.444 41.333 96.666 0 38.223-13.777 70.446-41.333 96.667-27.111 26.667-61.111 40.001-102 40.001zM993.333 892h355.331c139.116 0 255.784-46.223 350.003-138.667s141.335-205.555 141.335-339.333c0-133.778-47.115-246.889-141.335-339.333s-210.887-138.667-350.003-138.667h-355.331v956zM1348.665 707.334h-149.993v-587.333h149.993c79.11 0 146.671 28.444 202.672 85.333s83.991 126.222 83.991 207.999c0 82.223-27.329 151.778-82 208.667-54.659 56.889-122.88 85.333-204.663 85.333zM2030.672 892h703.329v-184.666h-498.005v-211.333h388.676v-184.667h-388.676v-375.334h-205.323v956z" />
<glyph unicode="&#xe91c;" glyph-name="quote" d="M1024 448.014v438.86h-438.858v-438.86h292.571c0-161.32-131.251-292.571-292.571-292.571v-146.287c242.001 0 438.858 196.857 438.858 438.858zM0.141 155.443v-146.287c242.003 0 438.86 196.857 438.86 438.858v438.86h-438.86v-438.86h292.57c0-161.32-131.245-292.571-292.57-292.571z" />
<glyph unicode="&#xe91d;" glyph-name="check_mark" horiz-adv-x="1408" d="M1382.906 818.439l-124.070 117.747c-16.73 15.876-37.638 23.814-61.338 23.814s-44.608-7.938-61.338-23.814l-596.659-566.243-266.265 254.015c-16.729 15.876-37.64 23.814-61.339 23.814s-44.61-7.938-61.338-23.814l-124.072-117.747c-18.123-15.876-26.487-35.721-26.487-58.212s8.364-42.336 25.093-58.212l453.070-429.974c16.728-15.878 37.64-23.814 61.338-23.814s44.61 7.936 61.339 23.814l782.066 742.201c16.73 15.876 25.094 35.721 25.094 58.212s-8.365 42.336-25.094 58.212z" />
<glyph unicode="&#xe91e;" glyph-name="arrow_deg" horiz-adv-x="1126" d="M964.127 941.238l-965.427-905.086 104.938-98.381 965.428 905.087-104.94 98.379zM1092.301 475.826h-148.403v345.043h-368.046v139.13h516.449v-484.174z" />
<glyph unicode="&#xe91f;" glyph-name="play" horiz-adv-x="819" d="M148.088 937.384c-81.532 53.126-148.088 9.375-148.088-96.877v-785.014c0-106.252 66.557-150.002 148.643-96.877l608.992 393.757c82.086 53.127 82.086 138.752 0 191.879l-609.547 393.132z" />
<glyph unicode="&#xe920;" glyph-name="drop_right" horiz-adv-x="569" d="M565.335 444.348l-487.109-508.348-74.673 76.8 416 435.2-419.563 435.2 74.673 76.8 494.218-512-3.563-3.652z" />
<glyph unicode="&#xe921;" glyph-name="quote_2" horiz-adv-x="1489" d="M300.021 298.667c-26.789-149.333-69.651-250.666-107.155-320-16.073-26.664 16.073-53.332 37.504-37.333 300.034 170.667 428.621 426.667 444.695 624.001 16.071 175.999-107.157 351.999-283.961 383.999-176.806 32-353.612-85.333-385.759-266.667s101.797-362.668 294.676-384.001zM1109.051 298.667c-26.788-149.333-69.651-250.666-107.154-320-16.074-26.664 16.071-53.332 37.503-37.333 300.035 170.667 428.618 426.667 444.692 624.001 16.074 175.999-107.154 351.999-283.961 383.999-182.163 32-353.609-85.333-385.756-266.667s101.798-362.668 294.676-384.001z" />
<glyph unicode="&#xe922;" glyph-name="drop_left" horiz-adv-x="569" d="M3.665 451.652l487.109 508.348 74.673-76.8-416-435.2 419.563-435.2-74.673-76.8-494.218 512 3.563 3.652z" />
</font>
</defs>
</svg>
