<svg width="48" height="48" viewBox="0 0 48 48" fill="none" xmlns="http://www.w3.org/2000/svg">
<path fill-rule="evenodd" clip-rule="evenodd" d="M25.05 25.6398C29.4 26.236 30 28.7702 30.3 31.1553V31.6025V31.9006L30.45 33.2422C30.9 35.9255 31.65 41.441 31.65 44.2733C31.65 45.0186 31.65 45.4658 31.5 45.913C31.35 46.3602 30.75 46.8075 30 47.2547C28.05 47.7019 26.1 48 24.15 48C24 48 23.7 48 23.55 48C22.8 47.7019 22.05 47.4037 21.75 46.8075C20.7 45.1677 20.7 41.7391 20.7 37.5652V37.118V35.9255C20.7 31.6025 20.7 27.7267 22.2 26.3851C23.1 25.4907 24 25.3416 25.05 25.6398ZM15.75 35.0311C16.65 35.0311 17.25 39.5031 17.4 42.9317C17.55 45.3168 17.25 46.3602 16.8 46.6584C16.35 46.5093 15.9 46.3602 15.45 46.2112C15.15 45.6149 15 44.8696 14.85 43.677C14.4 40.3975 14.7 35.1801 15.75 35.0311ZM39.15 41.8882C39.15 42.1863 39 42.4845 38.85 42.6335C38.1 43.2298 37.2 43.8261 36.3 44.4224C36 44.4224 35.7 44.4224 35.7 44.2733C34.5 42.1863 34.05 35.9255 35.25 35.3292C36.75 34.5839 39.3 40.8447 39.15 41.8882ZM24 0C37.05 0 47.7 10.2857 48 23.1056V23.5528V23.7019C48 29.5155 45.9 34.7329 42.3 38.9068C42.15 38.9068 42 38.6087 41.55 38.0124C41.1 37.4161 37.35 31.6025 37.35 25.0435C37.35 23.7019 39.3 21.764 40.95 19.9752C42.15 18.6335 43.35 17.441 43.8 16.3975C44.4 15.0559 43.95 14.1615 43.35 13.8634C42.75 13.5652 42 13.8634 41.4 14.7578C40.5 16.3975 40.2 16.6957 38.7 17.8882C37.35 18.9317 35.1 20.1242 35.1 18.6335C35.1 17.8882 36.3 16.0994 36.9 14.7578C37.5 13.5652 36.9 12.5217 35.55 12.5217C33 12.5217 31.35 15.6522 31.35 16.6957C31.35 17.7391 31.95 17.8882 31.95 19.2298C31.95 20.5714 29.25 22.2112 26.7 22.2112C24.15 22.2112 22.8 21.764 22.2 20.2733L22.05 20.1242L21.9 19.677C21.3 17.8882 20.85 16.5466 20.1 15.205C19.65 14.4596 19.05 14.0124 18.6 13.5652C17.85 12.9689 17.55 12.5217 17.4 12.0745C17.4 11.7764 17.25 11.0311 18.45 9.3913C19.65 7.75155 19.8 6.55901 19.2 5.96273C19.05 5.81366 18.6 5.6646 18.15 5.6646C17.25 5.6646 16.2 6.1118 14.85 7.30435C12.9 9.24224 14.1 11.0311 14.1 11.7764C14.1 12.5217 13.8 12.9689 12.6 14.1615C11.4 15.205 11.1 16.2484 10.95 19.9752C10.95 21.913 10.5 22.9565 10.2 24C9.9 24.8944 9.75 25.6398 9.75 26.8323C9.75 28.1739 9.9 28.9193 10.2 29.9627C10.5 30.8571 10.65 31.9006 10.95 33.5404C11.25 36.2236 11.1 38.4596 10.65 40.6957L10.5 41.5901V41.7391C10.35 42.1863 10.35 42.6335 10.05 42.7826C3.9 38.6087 0 31.6025 0 23.7019C0 10.5838 10.8 0 24 0Z" fill="white"/>
</svg>
