<svg width="47" height="46" viewBox="0 0 47 46" fill="none" xmlns="http://www.w3.org/2000/svg">
<path fill-rule="evenodd" clip-rule="evenodd" d="M23 0L15.2803 7.6931H7.71972V15.3069L0 23L7.71972 30.6931V38.3069H15.3599L23.0796 46L30.7993 38.3069H38.4394V30.6931L46.1592 23L38.4394 15.3069V7.6931H30.7993L23 0ZM9.62976 31.2483L1.35294 23L9.62976 14.7517V9.59655H14.8028L23 1.34828L31.2768 9.59655H36.4498V14.7517L44.6471 23L36.3702 31.2483V36.4035H31.1972L23 44.6517L14.7232 36.4035H9.55017V31.2483H9.62976ZM4.05882 23L23 41.9552L41.9412 23L23 4.04483L4.05882 23Z" fill="white"/>
<path fill-rule="evenodd" clip-rule="evenodd" d="M36.3708 17.4483C33.1874 21.3345 28.3328 23.7931 23.0006 23.7931C18.8622 23.7931 15.44 27.2034 15.44 31.3276C15.44 33.3103 16.1563 35.0552 17.4296 36.4034L23.0006 41.9552L41.9418 23L36.3708 17.4483ZM9.63033 28.5517C12.8137 24.6655 17.6684 22.2069 23.0006 22.2069C27.139 22.2069 30.5611 18.7965 30.5611 14.6724C30.5611 12.6896 29.8449 10.9448 28.5715 9.59654L23.0006 4.04482L4.0594 23L9.63033 28.5517ZM1.35352 23L9.63033 14.7517V9.59654H14.8033L23.0006 1.34827L31.2774 9.59654H36.4504V14.7517L44.6476 23L36.3708 31.2483V36.4034H31.1978L23.0006 44.6517L14.7238 36.4034H9.55075V31.2483L1.35352 23Z" fill="#FAAE17"/>
</svg>
